<svg width="20" height="31" viewBox="0 0 20 31" fill="none" xmlns="http://www.w3.org/2000/svg">
<path d="M19.1251 3.42788V0.322079C19.1251 0.0528822 18.8157 -0.0957787 18.6068 0.0689535L0.494254 14.2158C0.340363 14.3355 0.21584 14.4888 0.130184 14.6639C0.0445271 14.839 0 15.0314 0 15.2263C0 15.4213 0.0445271 15.6136 0.130184 15.7888C0.21584 15.9639 0.340363 16.1171 0.494254 16.2368L18.6068 30.3837C18.8197 30.5484 19.1251 30.3998 19.1251 30.1306V27.0248C19.1251 26.8279 19.0327 26.639 18.88 26.5185L4.41568 15.2283L18.88 3.93413C19.0327 3.8136 19.1251 3.62476 19.1251 3.42788Z" fill="black" fill-opacity="0.85"/>
</svg>
